<svg xmlns="http://www.w3.org/2000/svg" width="9.846" height="16.596" viewBox="0 0 9.846 16.596">
  <path id="_" data-name="$" d="M5.13,14.8l1.008.018v2.61H5.13Zm.09-.2V3.638l.81-.126V14.636ZM5.13.83H6.138V3.4L5.13,3.53ZM9.144,5.4a2.666,2.666,0,0,0-.576-.486,4.653,4.653,0,0,0-.81-.414,4.78,4.78,0,0,0-.99-.306,4.665,4.665,0,0,0-1.1-.126,3.481,3.481,0,0,0-2.178.558,1.848,1.848,0,0,0-.7,1.53,1.545,1.545,0,0,0,.36,1.08,2.586,2.586,0,0,0,1.1.648q.756.252,1.908.522a12.842,12.842,0,0,1,2.3.7,3.531,3.531,0,0,1,1.494,1.116,2.952,2.952,0,0,1,.522,1.836,3.392,3.392,0,0,1-.36,1.6,3.1,3.1,0,0,1-.972,1.116,4.6,4.6,0,0,1-1.476.648,8.049,8.049,0,0,1-1.836.2,9.194,9.194,0,0,1-1.908-.2,8.6,8.6,0,0,1-1.746-.612,7.531,7.531,0,0,1-1.548-.99L1.4,12.458a4.439,4.439,0,0,0,.738.612,8.466,8.466,0,0,0,1.044.54,7.971,7.971,0,0,0,1.278.414,6.8,6.8,0,0,0,1.4.144,3.919,3.919,0,0,0,2.124-.486,1.645,1.645,0,0,0,.756-1.458,1.557,1.557,0,0,0-.432-1.152,3.113,3.113,0,0,0-1.242-.72q-.828-.288-2.016-.576a14.6,14.6,0,0,1-2.178-.7A3.193,3.193,0,0,1,1.548,8.048,2.84,2.84,0,0,1,1.116,6.41,3.512,3.512,0,0,1,1.71,4.34,3.651,3.651,0,0,1,3.348,3.062,6.117,6.117,0,0,1,5.706,2.63a6.752,6.752,0,0,1,1.6.18,6.487,6.487,0,0,1,1.4.5A6.13,6.13,0,0,1,9.9,4.088Z" transform="translate(-0.63 -0.83)" fill="#1d1f22"/>
</svg>
