<svg xmlns="http://www.w3.org/2000/svg" width="52" height="52" viewBox="0 0 52 52">
  <g id="Group_1" data-name="Group 1" transform="translate(-1325 -1167)">
    <circle id="Surface" cx="26" cy="26" r="26" transform="translate(1325 1167)" fill="#5ece7b"/>
    <path id="Vector" d="M23.474,4.848a2.472,2.472,0,0,0-1.9-.894H6.191l-.48-1.788A2.411,2.411,0,0,0,3.361.4H.784A.771.771,0,0,0,0,1.152.771.771,0,0,0,.784,1.9H3.361a.829.829,0,0,1,.808.6L7.252,14.249A2.411,2.411,0,0,0,9.6,16.014H19.683a2.39,2.39,0,0,0,2.35-1.764l1.9-7.442a2.143,2.143,0,0,0-.455-1.959ZM22.388,6.467l-1.9,7.442a.829.829,0,0,1-.808.6H9.6a.828.828,0,0,1-.808-.6L6.6,5.477H21.58a.853.853,0,0,1,.657.314.735.735,0,0,1,.151.676Z" transform="translate(1337 1182.198)" fill="#fff"/>
    <path id="Vector-2" data-name="Vector" d="M2.444.981A2.155,2.155,0,0,0,.255,3.075,2.155,2.155,0,0,0,2.444,5.169,2.154,2.154,0,0,0,4.634,3.076,2.155,2.155,0,0,0,2.444.981Zm0,2.92a.827.827,0,1,1,0-1.652.836.836,0,0,1,.864.826A.863.863,0,0,1,2.444,3.9Z" transform="translate(1344.366 1198.23)" fill="#fff"/>
    <path id="Vector-3" data-name="Vector" d="M2.444.981A2.155,2.155,0,0,0,.255,3.075,2.155,2.155,0,0,0,2.444,5.169,2.154,2.154,0,0,0,4.634,3.076,2.155,2.155,0,0,0,2.444.981Zm0,2.92a.827.827,0,1,1,0-1.652.836.836,0,0,1,.864.826A.863.863,0,0,1,2.444,3.9Z" transform="translate(1353.366 1198.23)" fill="#fff"/>
  </g>
</svg>
