<svg xmlns="http://www.w3.org/2000/svg" xmlns:xlink="http://www.w3.org/1999/xlink" width="49.181" height="48.232" viewBox="0 0 49.181 48.232">
  <defs>
    <filter id="svg_2" x="2.043" y="0" width="45.095" height="41.844" filterUnits="userSpaceOnUse">
      <feOffset dy="3" input="SourceAlpha"/>
      <feGaussianBlur stdDeviation="3" result="blur"/>
      <feFlood flood-opacity="0.161"/>
      <feComposite operator="in" in2="blur"/>
      <feComposite in="SourceGraphic"/>
    </filter>
    <filter id="svg_2-2" x="2.043" y="0" width="45.095" height="41.844" filterUnits="userSpaceOnUse">
      <feOffset dy="3" input="SourceAlpha"/>
      <feGaussianBlur stdDeviation="3" result="blur-2"/>
      <feFlood flood-opacity="0.161" result="color"/>
      <feComposite operator="out" in="SourceGraphic" in2="blur-2"/>
      <feComposite operator="in" in="color"/>
      <feComposite operator="in" in2="SourceGraphic"/>
    </filter>
    <filter id="svg_3" x="0" y="1.613" width="49.181" height="46.619" filterUnits="userSpaceOnUse">
      <feOffset dy="3" input="SourceAlpha"/>
      <feGaussianBlur stdDeviation="3" result="blur-3"/>
      <feFlood flood-opacity="0.161"/>
      <feComposite operator="in" in2="blur-3"/>
      <feComposite in="SourceGraphic"/>
    </filter>
  </defs>
  <g id="logo" transform="translate(-1475.957 -1090.262)">
    <g data-type="innerShadowGroup">
      <g transform="matrix(1, 0, 0, 1, 1475.96, 1090.26)" filter="url(#svg_2)">
        <path id="svg_2-3" data-name="svg 2" d="M28.022,23.665a.543.543,0,0,1-.538.592H1.469a.543.543,0,0,1-.538-.59L2.8.912a.542.542,0,0,1,.538-.5H25.543a.542.542,0,0,1,.537.5Z" transform="translate(10.11 5.59)" fill="#1dcf65"/>
      </g>
      <g transform="matrix(1, 0, 0, 1, 1475.96, 1090.26)" filter="url(#svg_2-2)">
        <path id="svg_2-4" data-name="svg 2" d="M28.022,23.665a.543.543,0,0,1-.538.592H1.469a.543.543,0,0,1-.538-.59L2.8.912a.542.542,0,0,1,.538-.5H25.543a.542.542,0,0,1,.537.5Z" transform="translate(10.11 5.59)" fill="#fff"/>
      </g>
    </g>
    <g transform="matrix(1, 0, 0, 1, 1475.96, 1090.26)" filter="url(#svg_3)">
      <path id="svg_3-2" data-name="svg 3" d="M32.1,28.6a.679.679,0,0,1-.672.738H1.594A.678.678,0,0,1,.922,28.6L3.064,1.347A.677.677,0,0,1,3.736.72H29.2a.677.677,0,0,1,.672.625Z" transform="translate(8.08 6.89)" fill="#1dcf65"/>
    </g>
    <path id="svg_19" data-name="svg 19" d="M7.923,9.7C4.04,9.7.881,5.863.881,1.153a.44.44,0,1,1,.879,0c0,4.22,2.764,7.654,6.163,7.654s6.163-3.434,6.163-7.654a.44.44,0,1,1,.879,0C14.965,5.863,11.806,9.7,7.923,9.7Z" transform="translate(1492.077 1107.798)" fill="#fff"/>
    <path id="svg_21" data-name="svg 21" d="M1.258,4.034A.436.436,0,0,1,.947,3.9a.447.447,0,0,1,0-.628L3.226.973a.436.436,0,0,1,.622,0L6.1,3.253a.447.447,0,0,1,0,.628.437.437,0,0,1-.622,0L3.537,1.915,1.569,3.9A.436.436,0,0,1,1.258,4.034Z" transform="translate(1503.182 1105.157)" fill="#fff"/>
  </g>
</svg>
